<?xml version="1.0" standalone="no"?><!DOCTYPE svg PUBLIC "-//W3C//DTD SVG 1.1//EN" "http://www.w3.org/Graphics/SVG/1.1/DTD/svg11.dtd"><svg width="200" height="200" viewBox="0 0 200 200" version="1.1" xmlns="http://www.w3.org/2000/svg" xmlns:xlink="http://www.w3.org/1999/xlink"><defs><style type="text/css"><![CDATA[
@font-face { font-family: ifont; src: url("//at.alicdn.com/t/font_1442373896_4754455.eot?#iefix") format("embedded-opentype"), url("//at.alicdn.com/t/font_1442373896_4754455.woff") format("woff"), url("//at.alicdn.com/t/font_1442373896_4754455.ttf") format("truetype"), url("//at.alicdn.com/t/font_1442373896_4754455.svg#ifont") format("svg"); }

]]></style></defs><g class="transform-group"><g transform="scale(0.1953125, 0.1953125)"><path d="M272.6 952.3c-55.4 0-107.3-21.4-146.3-60.4C87.4 853 66 801.1 66 745.7c0-55.4 21.4-107.3 60.4-146.3l134-134c12.5-12.5 32.8-12.5 45.3 0l0 0c12.5 12.5 12.5 32.8 0 45.3l-134 134c-26.8 26.8-41.6 62.7-41.6 101s14.8 74.2 41.6 101 62.7 41.6 101 41.6 74.2-14.8 101-41.6l156.6-156.6c26.8-26.8 41.6-62.7 41.6-101 0-29.4-8.7-57.3-24.8-80.8-8.7-12.7-7.1-29.8 3.8-40.7l0 0c14.2-14.2 37.8-11.9 49.2 4.6 23.4 34.1 36 74.5 36 116.9 0 55.4-21.4 107.3-60.4 146.3L418.8 892C379.9 930.9 328 952.3 272.6 952.3zM687.1 552.3 687.1 552.3c-12.5-12.5-12.5-32.8 0-45.3l134-134c26.8-26.8 41.6-62.7 41.6-101s-14.8-74.2-41.6-101-62.7-41.6-101-41.6-74.2 14.8-101 41.6L462.4 327.6c-26.8 26.8-41.6 62.7-41.6 101 0 29.4 8.7 57.3 24.8 80.8 8.7 12.7 7.1 29.8-3.8 40.7l0 0c-14.2 14.2-37.8 11.9-49.2-4.6-23.4-34.1-36-74.5-36-116.9 0-55.4 21.4-107.3 60.4-146.3L573.7 125.7c38.9-38.9 90.9-60.4 146.3-60.4 55.4 0 107.3 21.4 146.3 60.4 38.9 38.9 60.4 90.9 60.4 146.3s-21.4 107.3-60.4 146.3l-134 134C719.8 564.8 699.6 564.8 687.1 552.3z" fill="#8e8e93"></path></g></g></svg>