<?xml version="1.0" standalone="no"?><!DOCTYPE svg PUBLIC "-//W3C//DTD SVG 1.1//EN" "http://www.w3.org/Graphics/SVG/1.1/DTD/svg11.dtd"><svg width="200" height="200" viewBox="0 0 200 200" version="1.1" xmlns="http://www.w3.org/2000/svg" xmlns:xlink="http://www.w3.org/1999/xlink"><defs><style type="text/css"><![CDATA[
@font-face { font-family: ifont; src: url("http://at.alicdn.com/t/font_1442373896_4754455.eot?#iefix") format("embedded-opentype"), url("http://at.alicdn.com/t/font_1442373896_4754455.woff") format("woff"), url("http://at.alicdn.com/t/font_1442373896_4754455.ttf") format("truetype"), url("http://at.alicdn.com/t/font_1442373896_4754455.svg#ifont") format("svg"); }

]]></style></defs><g class="transform-group"><g transform="scale(0.1953125, 0.1953125)"><path d="M696.630303 380.379798 327.369697 380.379798c-15.825455 0-26.375758 10.550303-26.375758 26.375758 0 15.824162 10.550303 26.374465 26.375758 26.374465l369.260606 0c15.824162 0 26.374465-10.550303 26.374465-26.374465C723.004768 390.930101 712.454465 380.379798 696.630303 380.379798zM696.630303 512.258586 327.369697 512.258586c-15.825455 0-26.375758 10.550303-26.375758 26.375758s10.550303 26.375758 26.375758 26.375758l369.260606 0c15.824162 0 26.374465-10.550303 26.374465-26.375758S712.454465 512.258586 696.630303 512.258586zM828.509091 169.373737c2.637576 0-633.018182 0-633.018182 0C145.37697 169.373737 116.363636 195.749495 116.363636 245.863434l0 451.026747C116.363636 747.002828 145.37697 776.016162 195.490909 776.016162l105.50303 0 0 131.878788c7.912727 36.927354 60.664242 73.852121 131.878788 26.375758l158.253253-158.254545L828.509091 776.016162c50.113939 0 79.127273-55.389091 79.127273-105.50303L907.636364 248.50101C907.636364 198.387071 875.985455 169.373737 828.509091 169.373737zM854.883556 670.513131c0 34.288485-21.099313 52.751515-55.389091 52.751515 2.637576 0-234.744242 0-234.744242 0l-158.254545 158.254545c-34.288485 34.288485-52.751515 0-52.751515-26.375758 0-55.389091 0-131.878788 0-131.878788l-131.878788 0c-34.288485 0-52.751515-18.46303-52.751515-52.751515l0-395.636364c0-34.289778 18.46303-52.751515 52.751515-52.751515l580.266667 0c34.289778 0 52.751515 18.461737 52.751515 52.751515L854.883556 670.513131z" fill="#b5babe"></path></g></g></svg>