<?xml version="1.0" standalone="no"?><!DOCTYPE svg PUBLIC "-//W3C//DTD SVG 1.1//EN" "http://www.w3.org/Graphics/SVG/1.1/DTD/svg11.dtd"><svg width="64" height="64" viewBox="0 0 64 64" version="1.1" xmlns="http://www.w3.org/2000/svg" xmlns:xlink="http://www.w3.org/1999/xlink"><defs><style type="text/css"><![CDATA[
@font-face { font-family: ifont; src: url("http://at.alicdn.com/t/font_1442373896_4754455.eot?#iefix") format("embedded-opentype"), url("http://at.alicdn.com/t/font_1442373896_4754455.woff") format("woff"), url("http://at.alicdn.com/t/font_1442373896_4754455.ttf") format("truetype"), url("http://at.alicdn.com/t/font_1442373896_4754455.svg#ifont") format("svg"); }

]]></style></defs><g class="transform-group"><g transform="scale(0.0625, 0.0625)"><path d="M887.466667 102.4l-102.4 0L785.066667 34.133333c0-20.48-13.653333-34.133333-34.133333-34.133333s-34.133333 13.653333-34.133333 34.133333l0 68.266667L307.2 102.4 307.2 34.133333c0-20.48-13.653333-34.133333-34.133333-34.133333S238.933333 13.653333 238.933333 34.133333l0 68.266667L136.533333 102.4C61.44 102.4 0 163.84 0 238.933333l0 648.533333c0 75.093333 61.44 136.533333 136.533333 136.533333l750.933333 0c75.093333 0 136.533333-61.44 136.533333-136.533333L1024 238.933333C1024 163.84 962.56 102.4 887.466667 102.4zM887.466667 955.733333 136.533333 955.733333c-37.546667 0-68.266667-30.72-68.266667-68.266667l887.466667 0C955.733333 925.013333 925.013333 955.733333 887.466667 955.733333zM955.733333 819.2 68.266667 819.2 68.266667 341.333333l887.466667 0L955.733333 819.2zM955.733333 307.2 68.266667 307.2 68.266667 238.933333c0-37.546667 30.72-68.266667 68.266667-68.266667l102.4 0 0 34.133333c0 20.48 13.653333 34.133333 34.133333 34.133333s34.133333-13.653333 34.133333-34.133333L307.2 170.666667l409.6 0 0 34.133333c0 20.48 13.653333 34.133333 34.133333 34.133333s34.133333-13.653333 34.133333-34.133333L785.066667 170.666667l102.4 0c37.546667 0 68.266667 30.72 68.266667 68.266667L955.733333 307.2zM580.266667 443.733333l68.266667 0 0 68.266667-68.266667 0 0-68.266667ZM750.933333 614.4l68.266667 0 0 68.266667-68.266667 0 0-68.266667ZM750.933333 443.733333l68.266667 0 0 68.266667-68.266667 0 0-68.266667ZM409.6 614.4l68.266667 0 0 68.266667-68.266667 0 0-68.266667ZM238.933333 614.4l68.266667 0 0 68.266667-68.266667 0 0-68.266667ZM238.933333 443.733333l68.266667 0 0 68.266667-68.266667 0 0-68.266667ZM409.6 443.733333l68.266667 0 0 68.266667-68.266667 0 0-68.266667ZM580.266667 614.4l68.266667 0 0 68.266667-68.266667 0 0-68.266667Z" fill="#b5babe"></path></g></g></svg>