<?xml version="1.0" standalone="no"?><svg width="200.1953125" height="200" viewBox="0 0 200.1953125 200" version="1.1" xmlns="http://www.w3.org/2000/svg" xmlns:xlink="http://www.w3.org/1999/xlink"><g class="transform-group"><g transform="scale(0.1953125, 0.1953125)"><path d="M629.071 549.956c72.974-40.894 122.446-119.038 122.446-208.699 0-131.964-107.052-239.017-239.017-239.017S273.483 209.293 273.483 341.257c0 89.661 49.354 167.688 122.446 208.699C250.451 598.37 145.044 734.565 142.812 895.79c0 14.336 11.634 25.97 25.97 25.97 14.336 0 25.97-11.634 25.97-25.97 2.703-173.211 143.833-312.813 317.749-312.813S827.546 722.579 830.249 895.79c0 14.336 11.634 25.97 25.97 25.97s25.97-11.634 25.97-25.97C880.073 734.565 774.666 598.253 629.071 549.956zM326.246 341.257c0-102.939 83.433-186.254 186.254-186.254s186.254 83.433 186.254 186.254c0 102.939-83.433 186.254-186.254 186.254C409.561 527.511 326.246 444.196 326.246 341.257z" fill="#929292"></path></g></g></svg>