<?xml version="1.0" standalone="no"?><!DOCTYPE svg PUBLIC "-//W3C//DTD SVG 1.1//EN" "http://www.w3.org/Graphics/SVG/1.1/DTD/svg11.dtd"><svg width="200" height="200" viewBox="0 0 200 200" version="1.1" xmlns="http://www.w3.org/2000/svg" xmlns:xlink="http://www.w3.org/1999/xlink"><g class="transform-group"><g transform="scale(0.1953125, 0.1953125)"><path d="M216.672296 183.056176l589.640288 0c10.166547 0 18.426675 8.259104 18.426675 18.425651l0 18.426675c0 10.16757-8.260128 18.425651-18.426675 18.425651L216.672296 238.334153c-10.16757 0-18.425651-8.259104-18.425651-18.425651L198.246645 201.481827C198.245621 191.31528 206.504726 183.056176 216.672296 183.056176zM751.033583 735.842091c0 30.537504-24.739451 55.280024-55.277978 55.280024L327.229275 791.122115c-30.537504 0-55.279001-24.742521-55.279001-55.280024L271.950274 330.466504c0 0 0-1.861394 0-5.117554 0-15.278985 12.360516-27.6395 27.638477-27.6395 15.276938 0 27.6395 12.360516 27.6395 27.6395 0 3.257184 0 5.117554 0 5.117554l0 357.24131c0 26.579355 20.945031 48.134277 46.76714 48.134277l274.991028 0c25.823132 0 46.768163-21.554922 46.768163-48.134277L695.754582 330.466504c0 0 0-1.861394 0-5.117554 0-15.278985 12.360516-27.6395 27.6395-27.6395s27.638477 12.360516 27.638477 27.6395c0 3.257184 0 5.117554 0 5.117554L751.03256 735.842091zM447.001125 404.171156c15.275915 0 27.637454 12.363585 27.637454 27.6395l0 147.409304c0 15.278985-12.362562 27.641547-27.637454 27.641547-15.276938 0-27.6395-12.362562-27.6395-27.641547L419.361625 431.809633C419.361625 416.533718 431.724187 404.171156 447.001125 404.171156zM575.983755 404.171156c15.276938 0 27.641547 12.363585 27.641547 27.6395l0 147.409304c0 15.278985-12.364609 27.641547-27.641547 27.641547-15.277962 0-27.638477-12.362562-27.638477-27.641547L548.345278 431.809633C548.345278 416.533718 560.706817 404.171156 575.983755 404.171156zM447.001125 90.924849l128.98263 0c15.276938 0 27.641547 12.362562 27.641547 27.6395s-12.364609 27.6395-27.641547 27.6395L447.001125 146.20385c-15.276938 0-27.6395-12.361539-27.6395-27.6395S431.724187 90.924849 447.001125 90.924849z" fill="#929292"></path></g></g></svg>