<?xml version="1.0" standalone="no"?><svg width="200" height="200" viewBox="0 0 200 200" version="1.1" xmlns="http://www.w3.org/2000/svg" xmlns:xlink="http://www.w3.org/1999/xlink"><g class="transform-group"><g transform="scale(0.1953125, 0.1953125)"><path d="M512.032 923.232c-85.952-0.096-237.856-10.4-290.368-78.496-17.76-23.04-23.04-50.912-15.264-80.64 16.768-64.096 92.448-108.512 208.896-123.424l0-12.256c-37.056-29.408-65.728-78.272-79.456-136.32-6.944-29.216-17.344-107.936-5.152-164.768 16.992-79.456 66.816-123.968 144.064-128.736 18.592-1.152 55.296-1.344 74.752 0.032 77.28 5.6 127.008 50.08 143.808 128.704 12.192 56.832 1.792 135.552-5.152 164.768-13.76 58.016-42.4 106.912-79.456 136.32l0 12.256c116.48 14.944 192.128 59.328 208.896 123.392 0 0 0 0 0 0.032 7.776 29.728 2.496 57.6-15.264 80.64C749.824 912.832 597.92 923.168 512.032 923.232zM513.728 245.664c-13.536 0-27.296 0.32-36.032 0.864-54.976 3.36-87.712 33.088-100.064 90.88-9.44 44.096-2.656 111.776 4.896 143.648 12.128 51.04 38.304 94.08 70.048 115.2 6.688 4.48 10.72 11.968 10.72 20l0 45.952c0 12.416-9.44 22.752-21.792 23.904-104.352 9.696-176.672 44.256-188.672 90.176-4.032 15.424-1.888 27.872 6.816 39.168 28.768 37.312 123.136 59.68 252.384 59.808 129.184-0.128 223.52-22.496 252.32-59.808 8.672-11.296 10.848-23.712 6.816-39.2-12.032-45.92-84.352-80.48-188.672-90.144-12.352-1.152-21.792-11.488-21.792-23.904l0-45.952c0-8.032 4.032-15.52 10.72-20 31.744-21.088 57.952-64.16 70.048-115.2 7.552-31.872 14.336-99.552 4.896-143.648-12.416-57.984-44.288-86.848-100.32-90.912C538.016 245.92 525.984 245.664 513.728 245.664zM964.064 696.384c-10.624 0-20.352-7.136-23.2-17.92-12.032-45.952-84.352-80.512-188.672-90.144-12.352-1.152-21.792-11.488-21.792-23.904l0-45.984c0-8.032 4.032-15.52 10.72-20 31.776-21.088 57.984-64.16 70.048-115.2 7.552-31.872 14.336-99.552 4.896-143.648-11.936-55.68-43.264-83.776-101.568-91.04-13.152-1.632-22.496-13.632-20.832-26.784 1.632-13.184 13.792-22.496 26.784-20.832 78.368 9.76 126.336 53.024 142.56 128.608 12.192 56.832 1.792 135.552-5.152 164.768-13.76 58.016-42.368 106.912-79.456 136.32l0 12.288c116.48 14.88 192.096 59.296 208.896 123.36 3.328 12.832-4.32 25.952-17.12 29.312C968.128 696.128 966.08 696.384 964.064 696.384zM59.936 696.384c-2.016 0-4.064-0.256-6.112-0.768-12.8-3.36-20.48-16.48-17.12-29.312 16.8-64.096 92.448-108.512 208.896-123.36l0-12.288c-37.088-29.408-65.728-78.272-79.456-136.32C159.2 365.088 148.768 286.368 160.96 229.536c16.224-75.552 64.192-118.848 142.56-128.608 12.928-1.472 25.152 7.68 26.784 20.832 1.664 13.152-7.68 25.152-20.832 26.784C251.168 155.808 219.84 183.904 207.904 239.584 198.464 283.68 205.248 351.36 212.8 383.232c12.096 51.04 38.272 94.08 70.048 115.2 6.688 4.48 10.72 11.968 10.72 20l0 45.984c0 12.416-9.44 22.752-21.792 23.904-104.352 9.664-176.672 44.224-188.672 90.144C80.288 689.248 70.56 696.384 59.936 696.384z" fill="#929292"></path></g></g></svg>