<?xml version="1.0" encoding="UTF-8" standalone="no"?>
<svg  viewBox="0 0 195 156" version="1.1" xmlns="http://www.w3.org/2000/svg" xmlns:xlink="http://www.w3.org/1999/xlink">
    <!-- Generator: Sketch 39 (31667) - http://www.bohemiancoding.com/sketch -->
    <g id="Page-1" stroke="none" stroke-width="1" fill="none" fill-rule="evenodd">
        <path d="M98.00625,155.31875 C81.21875,155.3 51.55,153.2875 41.29375,139.9875 C37.825,135.4875 36.79375,130.04375 38.3125,124.2375 C41.5875,111.71875 56.36875,103.04375 79.1125,100.13125 L79.1125,97.7375 C71.875,91.99375 66.275,82.45 63.59375,71.1125 C62.2375,65.40625 60.20625,50.03125 62.5875,38.93125 C65.90625,23.4125 75.6375,14.71875 90.725,13.7875 C94.35625,13.5625 101.525,13.525 105.325,13.79375 C120.41875,14.8875 130.13125,23.575 133.4125,38.93125 C135.79375,50.03125 133.7625,65.40625 132.40625,71.1125 C129.71875,82.44375 124.125,91.99375 116.8875,97.7375 L116.8875,100.13125 C139.6375,103.05 154.4125,111.71875 157.6875,124.23125 C157.6875,124.23125 157.6875,124.23125 157.6875,124.2375 C159.20625,130.04375 158.175,135.4875 154.70625,139.9875 C144.45,153.2875 114.78125,155.30625 98.00625,155.31875 L98.00625,155.31875 Z M170.531104,110.458493 C168.303133,101.949541 158.414231,92.3608133 145.21405,88.1585422 C142.970762,87.4443927 134.651811,87.1499203 134.651811,84.850844 C134.651811,84.850844 137.864847,76.6583142 138.349534,74.6943332 C149.074616,31.2356158 129.7565,11.708205 118.960322,10.3631268 C116.52496,10.0609287 127.899264,0.682179535 143.191844,0.682179528 C158.484425,0.682179522 168.480897,10.1642492 171.485103,24.1601726 C173.742701,34.6837797 171.816928,49.2603977 170.531104,54.6703376 C167.983159,65.4131865 162.685803,74.4672809 155.818201,79.9127736 L155.818201,82.1881481 C177.386855,84.9434844 191.388704,93.1680152 194.499568,105.030775 C195.115815,107.406882 193.699631,109.836319 191.329449,110.458491 C190.95022,110.559224 171.058469,112.455371 170.531104,110.458493 Z M24.7436933,110.458493 C26.9716641,101.949541 36.8605663,92.3608133 50.0607475,88.1585422 C52.3040352,87.4443927 60.6229859,87.1499203 60.6229859,84.850844 C60.6229859,84.850844 57.4099499,76.6583142 56.9252633,74.6943332 C46.2001809,31.2356158 65.518297,11.708205 76.314475,10.3631268 C78.7498368,10.0609287 67.3755334,0.682179535 52.0829527,0.682179528 C36.790372,0.682179522 26.7939,10.1642492 23.7896946,24.1601726 C21.5320965,34.6837797 23.4578692,49.2603977 24.7436928,54.6703376 C27.2916382,65.4131865 32.5889945,74.4672809 39.4565962,79.9127736 L39.4565962,82.1881481 C17.887942,84.9434844 3.88609311,93.1680152 0.775229529,105.030775 C0.158982266,107.406882 1.57516588,109.836319 3.94534766,110.458491 C4.32457674,110.559224 24.2163278,112.455371 24.7436933,110.458493 Z" id="Shape" fill="#0bb908"></path>
    </g>
</svg>