<?xml version="1.0" standalone="no"?><!DOCTYPE svg PUBLIC "-//W3C//DTD SVG 1.1//EN" "http://www.w3.org/Graphics/SVG/1.1/DTD/svg11.dtd"><svg width="64.0625" height="64" viewBox="0 0 64.0625 64" version="1.1" xmlns="http://www.w3.org/2000/svg" xmlns:xlink="http://www.w3.org/1999/xlink"><defs><style type="text/css"><![CDATA[
@font-face { font-family: ifont; src: url("http://at.alicdn.com/t/font_1442373896_4754455.eot?#iefix") format("embedded-opentype"), url("http://at.alicdn.com/t/font_1442373896_4754455.woff") format("woff"), url("http://at.alicdn.com/t/font_1442373896_4754455.ttf") format("truetype"), url("http://at.alicdn.com/t/font_1442373896_4754455.svg#ifont") format("svg"); }

]]></style></defs><g class="transform-group"><g transform="scale(0.0625, 0.0625)"><path d="M1024.307159 821.718704C1024.307159 955.367018 765.576856 1023.72697 512.136515 1023.72697 228.594587 1023.72697 0 942.602853 0 819.227303 0 700.186109 212.82709 588.789761 482.444474 581.076656L482.444474 488.553526C349.888282 479.031596 244.77163 374.187975 244.77163 245.181176 244.77163 110.031196 359.956272 0 501.556592 0 643.156912 0 758.341554 110.031196 758.341554 245.181176 758.341554 367.191574 664.350887 467.769097 542.067458 486.47167L542.067458 581.110785C785.508066 589.199307 1024.307159 693.360352 1024.307159 821.718704ZM68.257566 819.227303C68.257566 898.713238 245.283562 951.408079 511.931742 955.742434 783.562725 960.145047 955.605919 897.757632 955.605919 819.227303 955.605919 744.45114 796.053859 655.85282 542.067458 649.231836L542.067458 788.306626C542.067458 804.244767 528.723104 817.179576 512.238901 817.179576 495.788828 817.179576 482.444474 804.244767 482.444474 788.306626L482.444474 649.197707C232.417011 655.682176 68.257566 742.744701 68.257566 819.227303ZM697.762965 245.181176C697.762965 141.87335 609.744834 57.848287 501.556592 57.848287 393.368351 57.848287 305.316091 141.87335 305.316091 245.181176 305.316091 348.52313 393.368351 432.548194 501.556592 432.548194 609.744834 432.548194 697.762965 348.52313 697.762965 245.181176Z" fill="#b5babe"></path></g></g></svg>