<?xml version="1.0" standalone="no"?><svg  viewBox="0 0 200.390625 200" version="1.1" xmlns="http://www.w3.org/2000/svg" xmlns:xlink="http://www.w3.org/1999/xlink"><g class="transform-group"><g transform="scale(0.1953125, 0.1953125)"><path d="M554.097423 512 1015.549491 50.547933C1027.255148 38.842275 1027.191296 20.12838 1015.609529 8.546616 1004.366483-2.696431 985.223136-3.008266 973.608211 8.606657L512.156147 470.058724 50.70408 8.606657C39.089157-3.008266 19.94581-2.696431 8.702763 8.546616-2.879001 20.12838-2.942855 38.842275 8.762803 50.547933L470.214871 512 8.762803 973.452064C-2.942855 985.157728-2.879001 1003.871622 8.702763 1015.453382 19.94581 1026.696429 39.089157 1027.008269 50.70408 1015.393344L512.156147 553.941276 973.608211 1015.393344C985.223136 1027.008269 1004.366483 1026.696429 1015.609529 1015.453382 1027.191296 1003.871622 1027.255148 985.157728 1015.549491 973.452064L554.097423 512Z" fill="#fff"></path></g></g></svg>